<svg width="116" height="54" viewBox="0 0 116 54" fill="none" xmlns="http://www.w3.org/2000/svg">
<path d="M3.55569 43.7207C3.55569 43.6292 3.60145 43.5835 3.69298 43.5835H4.14602C4.23754 43.5835 4.2833 43.6292 4.2833 43.7207V53.0561C4.2833 53.1477 4.23754 53.1934 4.14602 53.1934H3.69298C3.60145 53.1934 3.55569 53.1477 3.55569 53.0561V48.7591C3.55569 48.7225 3.53739 48.7042 3.50078 48.7042H0.782527C0.745917 48.7042 0.727612 48.7225 0.727612 48.7591V53.0561C0.727612 53.1477 0.681851 53.1934 0.590327 53.1934H0.137285C0.0457618 53.1934 0 53.1477 0 53.0561V43.7207C0 43.6292 0.0457618 43.5835 0.137285 43.5835H0.590327C0.681851 43.5835 0.727612 43.6292 0.727612 43.7207V48.004C0.727612 48.0407 0.745917 48.059 0.782527 48.059H3.50078C3.53739 48.059 3.55569 48.0407 3.55569 48.004V43.7207Z" fill="black"/>
<path d="M13.5352 44.0914C13.5352 44.1829 13.4894 44.2287 13.3979 44.2287H10.1442C10.1076 44.2287 10.0893 44.247 10.0893 44.2836V48.004C10.0893 48.0407 10.1076 48.059 10.1442 48.059H12.2309C12.3225 48.059 12.3682 48.1047 12.3682 48.1962V48.5669C12.3682 48.6584 12.3225 48.7042 12.2309 48.7042H10.1442C10.1076 48.7042 10.0893 48.7225 10.0893 48.7591V52.4933C10.0893 52.5299 10.1076 52.5482 10.1442 52.5482H13.3979C13.4894 52.5482 13.5352 52.594 13.5352 52.6855V53.0561C13.5352 53.1477 13.4894 53.1934 13.3979 53.1934H9.49897C9.40744 53.1934 9.36168 53.1477 9.36168 53.0561V43.7207C9.36168 43.6292 9.40744 43.5835 9.49897 43.5835H13.3979C13.4894 43.5835 13.5352 43.6292 13.5352 43.7207V44.0914Z" fill="black"/>
<path d="M22.1309 53.1934C22.0486 53.1934 21.9982 53.1522 21.9799 53.0699L21.6092 51.2714C21.6092 51.2531 21.6001 51.2394 21.5818 51.2303C21.5726 51.2211 21.5589 51.2165 21.5406 51.2165H18.8498C18.8315 51.2165 18.8132 51.2211 18.7949 51.2303C18.7857 51.2394 18.7812 51.2531 18.7812 51.2714L18.4105 53.0699C18.4013 53.1522 18.351 53.1934 18.2595 53.1934H17.8064C17.7607 53.1934 17.7241 53.1797 17.6966 53.1522C17.6783 53.1248 17.6737 53.0882 17.6829 53.0424L19.7696 43.707C19.7879 43.6246 19.8383 43.5835 19.9206 43.5835H20.4698C20.5613 43.5835 20.6116 43.6246 20.6208 43.707L22.7213 53.0424V53.0699C22.7213 53.1522 22.6801 53.1934 22.5977 53.1934H22.1309ZM18.9322 50.5576C18.9322 50.5942 18.9459 50.6125 18.9734 50.6125H21.4033C21.4308 50.6125 21.4445 50.5942 21.4445 50.5576L20.2227 44.7504C20.2135 44.7229 20.2044 44.7092 20.1952 44.7092C20.1861 44.7092 20.1769 44.7229 20.1678 44.7504L18.9322 50.5576Z" fill="black"/>
<path d="M27.123 53.1934C27.0315 53.1934 26.9857 53.1477 26.9857 53.0561V43.7207C26.9857 43.6292 27.0315 43.5835 27.123 43.5835H27.576C27.6675 43.5835 27.7133 43.6292 27.7133 43.7207V52.4933C27.7133 52.5299 27.7316 52.5482 27.7682 52.5482H30.9807C31.0722 52.5482 31.118 52.594 31.118 52.6855V53.0561C31.118 53.1477 31.0722 53.1934 30.9807 53.1934H27.123Z" fill="black"/>
<path d="M38.4638 43.5835C38.5553 43.5835 38.6011 43.6292 38.6011 43.7207V44.0914C38.6011 44.1829 38.5553 44.2287 38.4638 44.2287H36.6379C36.6013 44.2287 36.583 44.247 36.583 44.2836V53.0561C36.583 53.1477 36.5372 53.1934 36.4457 53.1934H35.9927C35.9012 53.1934 35.8554 53.1477 35.8554 53.0561V44.2836C35.8554 44.247 35.8371 44.2287 35.8005 44.2287H34.0844C33.9929 44.2287 33.9471 44.1829 33.9471 44.0914V43.7207C33.9471 43.6292 33.9929 43.5835 34.0844 43.5835H38.4638Z" fill="black"/>
<path d="M46.7577 43.7207C46.7577 43.6292 46.8034 43.5835 46.895 43.5835H47.348C47.4395 43.5835 47.4853 43.6292 47.4853 43.7207V53.0561C47.4853 53.1477 47.4395 53.1934 47.348 53.1934H46.895C46.8034 53.1934 46.7577 53.1477 46.7577 53.0561V48.7591C46.7577 48.7225 46.7394 48.7042 46.7028 48.7042H43.9845C43.9479 48.7042 43.9296 48.7225 43.9296 48.7591V53.0561C43.9296 53.1477 43.8838 53.1934 43.7923 53.1934H43.3393C43.2477 53.1934 43.202 53.1477 43.202 53.0561V43.7207C43.202 43.6292 43.2477 43.5835 43.3393 43.5835H43.7923C43.8838 43.5835 43.9296 43.6292 43.9296 43.7207V48.004C43.9296 48.0407 43.9479 48.059 43.9845 48.059H46.7028C46.7394 48.059 46.7577 48.0407 46.7577 48.004V43.7207Z" fill="black"/>
<path d="M56.3802 43.7207C56.3802 43.6292 56.426 43.5835 56.5175 43.5835H56.9568C57.0483 43.5835 57.0941 43.6292 57.0941 43.7207V53.0561C57.0941 53.1477 57.0483 53.1934 56.9568 53.1934H56.4214C56.3482 53.1934 56.2978 53.1568 56.2704 53.0836L53.3462 45.3956C53.337 45.3682 53.3233 45.359 53.305 45.3682C53.2867 45.3682 53.2775 45.3819 53.2775 45.4094L53.2913 53.0561C53.2913 53.1477 53.2455 53.1934 53.154 53.1934H52.701C52.6094 53.1934 52.5637 53.1477 52.5637 53.0561V43.7207C52.5637 43.6292 52.6094 43.5835 52.701 43.5835H53.2226C53.2959 43.5835 53.3462 43.6201 53.3736 43.6933L56.3116 51.3401C56.3207 51.3675 56.3344 51.3813 56.3527 51.3813C56.371 51.3721 56.3802 51.3538 56.3802 51.3264V43.7207Z" fill="black"/>
<path d="M66.4608 44.0914C66.4608 44.1829 66.415 44.2287 66.3235 44.2287H63.0699C63.0332 44.2287 63.0149 44.247 63.0149 44.2836V48.004C63.0149 48.0407 63.0332 48.059 63.0699 48.059H65.1566C65.2481 48.059 65.2939 48.1047 65.2939 48.1962V48.5669C65.2939 48.6584 65.2481 48.7042 65.1566 48.7042H63.0699C63.0332 48.7042 63.0149 48.7225 63.0149 48.7591V52.4933C63.0149 52.5299 63.0332 52.5482 63.0699 52.5482H66.3235C66.415 52.5482 66.4608 52.594 66.4608 52.6855V53.0561C66.4608 53.1477 66.415 53.1934 66.3235 53.1934H62.4246C62.3331 53.1934 62.2873 53.1477 62.2873 53.0561V43.7207C62.2873 43.6292 62.3331 43.5835 62.4246 43.5835H66.3235C66.415 43.5835 66.4608 43.6292 66.4608 43.7207V44.0914Z" fill="black"/>
<path d="M72.8824 53.3033C72.2326 53.3033 71.7064 53.0836 71.3037 52.6443C70.9009 52.1958 70.6996 51.6147 70.6996 50.9008V50.6125C70.6996 50.5209 70.7454 50.4752 70.8369 50.4752H71.2762C71.3677 50.4752 71.4135 50.5209 71.4135 50.6125V50.8733C71.4135 51.4133 71.5462 51.848 71.8116 52.1775C72.0862 52.507 72.4385 52.6718 72.8687 52.6718C73.2989 52.6718 73.6558 52.5116 73.9395 52.1913C74.2233 51.8709 74.3651 51.4545 74.3651 50.942C74.3651 50.6033 74.2965 50.3104 74.1592 50.0633C74.0311 49.8162 73.8617 49.6057 73.6512 49.4318C73.4499 49.2488 73.1158 48.9788 72.649 48.6218C72.1731 48.2649 71.807 47.972 71.5508 47.7432C71.3036 47.5052 71.0977 47.2261 70.933 46.9058C70.7682 46.5763 70.6859 46.1873 70.6859 45.7388C70.6859 45.0341 70.8826 44.4804 71.2762 44.0777C71.6697 43.675 72.1777 43.4736 72.8001 43.4736C73.4682 43.4736 74.0036 43.6979 74.4063 44.1463C74.809 44.5948 75.0104 45.1851 75.0104 45.9173V46.2605C75.0104 46.352 74.9646 46.3978 74.8731 46.3978H74.42C74.3285 46.3978 74.2827 46.352 74.2827 46.2605V45.9173C74.2827 45.3773 74.1455 44.9426 73.8709 44.6131C73.6055 44.2745 73.2485 44.1051 72.8001 44.1051C72.3974 44.1051 72.0633 44.2516 71.7979 44.5445C71.5325 44.8282 71.3998 45.2309 71.3998 45.7526C71.3998 46.0637 71.4547 46.3337 71.5645 46.5626C71.6835 46.7914 71.8482 47.0064 72.0587 47.2078C72.2784 47.4091 72.6079 47.6746 73.0472 48.004C73.5872 48.4068 73.9899 48.7317 74.2553 48.9788C74.5207 49.2259 74.7221 49.4959 74.8593 49.7888C75.0058 50.0816 75.079 50.434 75.079 50.8459C75.079 51.5963 74.8731 52.1958 74.4612 52.6443C74.0585 53.0836 73.5322 53.3033 72.8824 53.3033Z" fill="black"/>
<path d="M81.5201 53.3033C80.8703 53.3033 80.3441 53.0836 79.9414 52.6443C79.5387 52.1958 79.3373 51.6147 79.3373 50.9008V50.6125C79.3373 50.5209 79.3831 50.4752 79.4746 50.4752H79.9139C80.0054 50.4752 80.0512 50.5209 80.0512 50.6125V50.8733C80.0512 51.4133 80.1839 51.848 80.4493 52.1775C80.7239 52.507 81.0763 52.6718 81.5064 52.6718C81.9366 52.6718 82.2935 52.5116 82.5772 52.1913C82.861 51.8709 83.0028 51.4545 83.0028 50.942C83.0028 50.6033 82.9342 50.3104 82.7969 50.0633C82.6688 49.8162 82.4995 49.6057 82.2889 49.4318C82.0876 49.2488 81.7535 48.9788 81.2868 48.6218C80.8108 48.2649 80.4447 47.972 80.1885 47.7432C79.9414 47.5052 79.7354 47.2261 79.5707 46.9058C79.406 46.5763 79.3236 46.1873 79.3236 45.7388C79.3236 45.0341 79.5204 44.4804 79.9139 44.0777C80.3075 43.675 80.8154 43.4736 81.4378 43.4736C82.1059 43.4736 82.6413 43.6979 83.044 44.1463C83.4467 44.5948 83.6481 45.1851 83.6481 45.9173V46.2605C83.6481 46.352 83.6023 46.3978 83.5108 46.3978H83.0577C82.9662 46.3978 82.9205 46.352 82.9205 46.2605V45.9173C82.9205 45.3773 82.7832 44.9426 82.5086 44.6131C82.2432 44.2745 81.8862 44.1051 81.4378 44.1051C81.0351 44.1051 80.701 44.2516 80.4356 44.5445C80.1702 44.8282 80.0375 45.2309 80.0375 45.7526C80.0375 46.0637 80.0924 46.3337 80.2022 46.5626C80.3212 46.7914 80.4859 47.0064 80.6964 47.2078C80.9161 47.4091 81.2456 47.6746 81.6849 48.004C82.2249 48.4068 82.6276 48.7317 82.893 48.9788C83.1584 49.2259 83.3598 49.4959 83.4971 49.7888C83.6435 50.0816 83.7167 50.434 83.7167 50.8459C83.7167 51.5963 83.5108 52.1958 83.0989 52.6443C82.6962 53.0836 82.17 53.3033 81.5201 53.3033Z" fill="black"/>
<path d="M97.7387 53.1934C97.6563 53.1934 97.606 53.1522 97.5877 53.0699L97.217 51.2714C97.217 51.2531 97.2079 51.2394 97.1896 51.2303C97.1804 51.2211 97.1667 51.2165 97.1484 51.2165H94.4576C94.4393 51.2165 94.421 51.2211 94.4027 51.2303C94.3935 51.2394 94.3889 51.2531 94.3889 51.2714L94.0183 53.0699C94.0091 53.1522 93.9588 53.1934 93.8672 53.1934H93.4142C93.3684 53.1934 93.3318 53.1797 93.3044 53.1522C93.2861 53.1248 93.2815 53.0882 93.2906 53.0424L95.3774 43.707C95.3957 43.6246 95.446 43.5835 95.5284 43.5835H96.0775C96.1691 43.5835 96.2194 43.6246 96.2286 43.707L98.329 53.0424V53.0699C98.329 53.1522 98.2878 53.1934 98.2055 53.1934H97.7387ZM94.5399 50.5576C94.5399 50.5942 94.5537 50.6125 94.5811 50.6125H97.0111C97.0385 50.6125 97.0523 50.5942 97.0523 50.5576L95.8304 44.7504C95.8213 44.7229 95.8121 44.7092 95.803 44.7092C95.7938 44.7092 95.7847 44.7229 95.7755 44.7504L94.5399 50.5576Z" fill="black"/>
<path d="M104.859 43.556C105.499 43.556 106.016 43.7985 106.41 44.2836C106.804 44.7595 107 45.3865 107 46.1644C107 46.9424 106.804 47.5647 106.41 48.0315C106.026 48.4983 105.518 48.7317 104.886 48.7317H103.362C103.326 48.7317 103.307 48.75 103.307 48.7866V53.0561C103.307 53.1477 103.262 53.1934 103.17 53.1934H102.717C102.625 53.1934 102.58 53.1477 102.58 53.0561V43.6933C102.58 43.6018 102.625 43.556 102.717 43.556H104.859ZM104.776 48.1276C105.225 48.1276 105.586 47.9491 105.861 47.5922C106.135 47.2353 106.273 46.7639 106.273 46.1782C106.273 45.5833 106.135 45.1073 105.861 44.7504C105.586 44.3934 105.225 44.215 104.776 44.215H103.362C103.326 44.215 103.307 44.2333 103.307 44.2699V48.0727C103.307 48.1093 103.326 48.1276 103.362 48.1276H104.776Z" fill="black"/>
<path d="M113.858 43.556C114.499 43.556 115.016 43.7985 115.41 44.2836C115.803 44.7595 116 45.3865 116 46.1644C116 46.9424 115.803 47.5647 115.41 48.0315C115.025 48.4983 114.517 48.7317 113.886 48.7317H112.362C112.325 48.7317 112.307 48.75 112.307 48.7866V53.0561C112.307 53.1477 112.261 53.1934 112.17 53.1934H111.717C111.625 53.1934 111.579 53.1477 111.579 53.0561V43.6933C111.579 43.6018 111.625 43.556 111.717 43.556H113.858ZM113.776 48.1276C114.224 48.1276 114.586 47.9491 114.861 47.5922C115.135 47.2353 115.272 46.7639 115.272 46.1782C115.272 45.5833 115.135 45.1073 114.861 44.7504C114.586 44.3934 114.224 44.215 113.776 44.215H112.362C112.325 44.215 112.307 44.2333 112.307 44.2699V48.0727C112.307 48.1093 112.325 48.1276 112.362 48.1276H113.776Z" fill="black"/>
<path d="M9.94029 37.3721C7.43283 37.3721 5.44776 36.8487 3.98507 35.8019C2.55224 34.755 1.52239 33.2895 0.895522 31.4051C0.298507 29.4909 0 27.2926 0 24.8101V12.6069C0 10.0347 0.328358 7.80642 0.985074 5.92211C1.64179 4.0378 2.76119 2.58719 4.34328 1.57026C5.95522 0.523419 8.13432 0 10.8806 0C13.5672 0 15.6716 0.448645 17.194 1.34594C18.7463 2.24322 19.8507 3.48448 20.5075 5.06969C21.1642 6.6549 21.4925 8.5093 21.4925 10.6329V12.9658H13.6567V10.0048C13.6567 9.22713 13.597 8.5093 13.4776 7.85129C13.3881 7.19327 13.1492 6.66985 12.7612 6.28103C12.403 5.86229 11.806 5.65292 10.9701 5.65292C10.1045 5.65292 9.47761 5.8922 9.08955 6.37076C8.70149 6.8194 8.44776 7.38769 8.32835 8.07561C8.2388 8.76353 8.19402 9.48136 8.19402 10.2291V27.0533C8.19402 27.8608 8.26865 28.6235 8.41791 29.3414C8.59701 30.0293 8.89552 30.5976 9.31343 31.0462C9.76119 31.465 10.3881 31.6743 11.194 31.6743C12.0298 31.6743 12.6716 31.45 13.1194 31.0014C13.5672 30.5527 13.8806 29.9695 14.0597 29.2516C14.2388 28.5338 14.3283 27.7711 14.3283 26.9636V22.7014H11.0597V17.9907H21.5373V36.8337H16.2537L15.806 33.8278C15.3283 34.8448 14.6269 35.6972 13.7015 36.3851C12.7761 37.0431 11.5224 37.3721 9.94029 37.3721Z" fill="black"/>
<path d="M26.5536 36.8337V0.493508H42.8521V5.96698H34.5685V14.9847H40.882V20.5479H34.5685V31.4051H42.9417V36.8337H26.5536Z" fill="black"/>
<path d="M49.8491 36.8337V6.46049H44.3864V0.493508H63.3267V6.46049H57.9088V36.8337H49.8491Z" fill="black"/>
<path d="M66.5198 36.8337V0.493508H82.1914V5.92211H74.5347V15.0745H81.2063V20.6825H74.5347V36.8337H66.5198Z" fill="black"/>
<path d="M85.7606 36.8337V0.493508H93.7755V36.8337H85.7606Z" fill="black"/>
<path d="M102.452 36.8337V6.46049H96.9896V0.493508H115.93V6.46049H110.512V36.8337H102.452Z" fill="black"/>
</svg>
